<svg width="33" height="33" viewBox="0 0 33 33" fill="none" xmlns="http://www.w3.org/2000/svg">
<path d="M5.5 27.5C4.74375 27.5 4.09658 27.231 3.5585 26.6929C3.02042 26.1548 2.75092 25.5072 2.75 24.75V8.25C2.75 7.49375 3.0195 6.84658 3.5585 6.3085C4.0975 5.77042 4.74467 5.50092 5.5 5.5H27.5C28.2563 5.5 28.9039 5.7695 29.4429 6.3085C29.9819 6.8475 30.2509 7.49467 30.25 8.25V24.75C30.25 25.5063 29.981 26.1539 29.4429 26.6929C28.9048 27.2319 28.2572 27.5009 27.5 27.5H5.5ZM16.5 17.875L5.5 11V24.75H27.5V11L16.5 17.875ZM16.5 15.125L27.5 8.25H5.5L16.5 15.125ZM5.5 11V8.25V24.75V11Z" fill="white"/>
</svg>
